<svg id="Layer_3" enable-background="new 0 0 64 64" height="512" viewBox="0 0 64 64" width="512" xmlns="http://www.w3.org/2000/svg"><path d="m35 19h-28v10h28zm-16 8h-10v-6h10zm10 0h-2v-2h2zm0-4h-2v-2h2zm4 4h-2v-2h2zm0-4h-2v-2h2z"/><path d="m35 43h-28v10h28zm-16 8h-10v-6h10zm10 0h-2v-2h2zm0-4h-2v-2h2zm4 4h-2v-2h2zm0-4h-2v-2h2z"/><path d="m25 35h6v2h-6z"/><path d="m35 31h-28v10h28zm-24 8h-2v-2h2zm0-4h-2v-2h2zm4 4h-2v-2h2zm0-4h-2v-2h2zm18 4h-10v-6h10z"/><path d="m11 23h6v2h-6z"/><path d="m37 13.184v39.816c0 1.103-.897 2-2 2h-28c-1.103 0-2-.897-2-2v-39.816c-1.161.414-2 1.514-2 2.816v42c0 1.654 1.346 3 3 3h30c1.654 0 3-1.346 3-3v-42c0-1.302-.839-2.402-2-2.816zm-30 45.816h-2v-2h2zm4 0h-2v-2h2zm4 0h-2v-2h2z"/><path d="m53 18c0 3.86-3.141 7-7 7-1.958 0-3.728-.81-5-2.111v2.574c1.488 1.003 3.205 1.537 5 1.537 4.963 0 9-4.038 9-9s-4.037-9-9-9c-2.65 0-5.137 1.167-6.839 3.159.532.439.969.979 1.284 1.6 1.28-1.674 3.291-2.759 5.555-2.759 3.859 0 7 3.14 7 7z"/><circle cx="46" cy="18" r="5"/><path d="m58.858 16.007-.113-.569c-.332-1.659-.979-3.219-1.923-4.636l-.322-.483 1.011-2.021-1.809-1.809-2.02 1.011-.483-.322c-1.416-.944-2.977-1.591-4.636-1.922l-.57-.113-.714-2.143h-2.559l-.713 2.142-.57.113c-1.659.332-3.22.979-4.636 1.922l-.483.323-2.021-1.011-1.809 1.809 1.011 2.021-.322.483c-.041.061-.08.135-.12.198h.943c.478 0 .931.089 1.368.214 2.08-2.643 5.243-4.214 8.632-4.214 6.065 0 11 4.935 11 11s-4.935 11-11 11c-1.76 0-3.458-.417-5-1.212v2.172c.813.344 1.63.624 2.437.785l.57.113.714 2.142h2.559l.713-2.142.57-.113c1.659-.332 3.22-.979 4.636-1.922l.483-.322 2.021 1.011 1.809-1.809-1.012-2.022.322-.483c.944-1.417 1.591-2.976 1.923-4.636l.113-.569 2.142-.714v-2.559z"/><path d="m11 47h6v2h-6z"/><path d="m7 13h28v4h-28z"/></svg>