<?xml version="1.0" ?><!DOCTYPE svg  PUBLIC '-//W3C//DTD SVG 1.1//EN'  'http://www.w3.org/Graphics/SVG/1.1/DTD/svg11.dtd'><svg height="512px" style="enable-background:new 0 0 512 512;" version="1.1" viewBox="0 0 512 512" width="512px" xml:space="preserve" xmlns="http://www.w3.org/2000/svg" xmlns:xlink="http://www.w3.org/1999/xlink"><g id="C_-_66_x2C__Workforce_x2C__Business_x2C__human_x2C__leadership_x2C__management_x2C__organization_x2C__resources_x2C__teamwork"><g><path d="M291.607,408.479H220.08c-17.228,0-31.243,13.937-31.243,31.067v30.883h134.319v-30.571    C323.156,422.556,309.004,408.479,291.607,408.479z M264.982,439.538h-17.964v-17.871h17.964V439.538z"/><path d="M435.611,408.479h-71.536c-17.396,0-31.548,14.076-31.548,31.379v30.571h134.318v-30.883    C466.846,422.416,452.834,408.479,435.611,408.479z M408.672,439.538h-17.965v-17.871h17.965V439.538z"/><path d="M148.231,408.479H76.705c-17.397,0-31.55,14.076-31.55,31.379v30.571h134.313v-30.883    C179.467,422.416,165.455,408.479,148.231,408.479z M121.293,439.538h-17.966v-17.871h17.966V439.538z"/><path d="M143.546,350.891c0-17.535-14.012-31.801-31.235-31.801c-17.223,0-31.235,14.266-31.235,31.801    c0,17.539,14.013,31.808,31.235,31.808C129.534,382.698,143.546,368.43,143.546,350.891z"/><path d="M430.926,350.891c0-17.535-14.013-31.801-31.237-31.801c-17.222,0-31.233,14.266-31.233,31.801    c0,17.539,14.012,31.808,31.233,31.808C416.913,382.698,430.926,368.43,430.926,350.891z"/><path d="M287.236,350.891c0-17.535-14.012-31.801-31.235-31.801c-17.223,0-31.235,14.266-31.235,31.801    c0,17.539,14.013,31.808,31.235,31.808C273.225,382.698,287.236,368.43,287.236,350.891z"/><path d="M435.611,273.967h-71.536c-15.714,0-29.381,8.873-36.233,21.848c-6.853-12.975-20.52-21.848-36.234-21.848H220.08    c-15.57,0-29.114,8.773-35.927,21.611c-6.812-12.838-20.354-21.611-35.921-21.611H76.705c-22.564,0-40.921,18.28-40.921,40.75    v35.439c0,2.588,2.099,4.686,4.686,4.686c2.588,0,4.686-2.098,4.686-4.686v-35.439c0-17.303,14.153-31.379,31.55-31.379h71.527    c17.224,0,31.235,13.937,31.235,31.066v35.752c0,2.588,2.098,4.686,4.685,4.686c2.588,0,4.686-2.098,4.686-4.686v-35.752    c0-17.13,14.015-31.066,31.243-31.066h71.527c17.396,0,31.549,14.076,31.549,31.379v35.439c0,2.588,2.098,4.686,4.686,4.686    s4.686-2.098,4.686-4.686v-35.439c0-17.303,14.152-31.379,31.548-31.379h71.536c17.223,0,31.234,13.937,31.234,31.066v35.752    c0,2.588,2.098,4.686,4.686,4.686s4.686-2.098,4.686-4.686v-35.752C476.217,292.107,458.001,273.967,435.611,273.967z"/><path d="M399.688,266.928c22.392,0,40.608-18.469,40.608-41.171c0-22.703-18.217-41.173-40.608-41.173    c-22.39,0-40.604,18.47-40.604,41.173C359.084,248.458,377.299,266.928,399.688,266.928z"/><path d="M256.001,184.584c-22.391,0-40.606,18.47-40.606,41.173c0,22.702,18.216,41.171,40.606,41.171    s40.606-18.469,40.606-41.171C296.607,203.054,278.392,184.584,256.001,184.584z"/><path d="M71.704,225.757c0,22.702,18.216,41.171,40.606,41.171s40.606-18.469,40.606-41.171c0-22.703-18.216-41.173-40.606-41.173    S71.704,203.054,71.704,225.757z"/><path d="M184.152,211.828c2.588,0,4.686-2.098,4.686-4.686v-35.751c0-17.13,14.015-31.067,31.243-31.067h71.527    c17.396,0,31.549,14.076,31.549,31.379v35.439c0,2.588,2.098,4.686,4.686,4.686s4.686-2.098,4.686-4.686v-35.439    c0-22.469-18.357-40.75-40.92-40.75H220.08c-22.394,0-40.613,18.141-40.613,40.438v35.751    C179.467,209.73,181.565,211.828,184.152,211.828z"/><path d="M256.001,123.914c22.391,0,40.606-18.469,40.606-41.171s-18.216-41.172-40.606-41.172s-40.606,18.469-40.606,41.172    S233.61,123.914,256.001,123.914z"/><path d="M58.43,86.693c0.89,0,1.789-0.253,2.585-0.781l19.67-13.045v80.651c0,2.588,2.098,4.686,4.685,4.686    c2.588,0,4.686-2.098,4.686-4.686v-80.65l19.665,13.044c0.797,0.528,1.696,0.781,2.586,0.781c1.518,0,3.006-0.736,3.909-2.096    c1.43-2.156,0.842-5.063-1.314-6.495L87.967,60.235c-0.122-0.081-0.255-0.136-0.383-0.205c-0.136-0.074-0.266-0.157-0.411-0.218    c-0.01-0.004-0.021-0.008-0.032-0.013c-0.125-0.051-0.256-0.077-0.384-0.116c-0.01-0.004-0.02-0.006-0.031-0.01    c-0.141-0.043-0.276-0.099-0.423-0.128c-0.01-0.003-0.02-0.002-0.031-0.004c-0.144-0.028-0.29-0.031-0.435-0.046    c-0.15-0.015-0.299-0.043-0.45-0.043c-0.005,0-0.01-0.001-0.016-0.001c-0.006,0-0.012,0.001-0.018,0.001    c-0.127,0.001-0.252,0.026-0.379,0.037c-0.17,0.014-0.34,0.02-0.509,0.053c-0.007,0.001-0.016,0.001-0.024,0.002    c-0.145,0.029-0.278,0.085-0.417,0.127c-0.142,0.043-0.285,0.072-0.424,0.129c-0.01,0.003-0.02,0.007-0.029,0.012    c-0.147,0.062-0.281,0.146-0.42,0.222c-0.125,0.068-0.256,0.122-0.376,0.202l-0.02,0.014c-0.001,0.001-0.002,0.002-0.003,0.002    l-26.914,17.85c-2.156,1.43-2.746,4.337-1.315,6.495C55.423,85.957,56.912,86.693,58.43,86.693z"/><path d="M399.693,86.693c0.89,0,1.789-0.253,2.585-0.781l19.665-13.044v80.65c0,2.588,2.098,4.686,4.686,4.686    s4.686-2.098,4.686-4.686v-80.65l19.663,13.044c0.796,0.528,1.695,0.781,2.585,0.781c1.518,0,3.008-0.736,3.91-2.096    c1.43-2.156,0.842-5.063-1.316-6.495l-26.906-17.85c-0.002,0-0.004-0.001-0.006-0.003l-0.022-0.015    c-0.104-0.069-0.22-0.115-0.328-0.176c-0.153-0.086-0.302-0.179-0.466-0.247c-0.008-0.003-0.017-0.006-0.025-0.01    c-0.139-0.057-0.282-0.087-0.424-0.129c-0.141-0.043-0.275-0.099-0.422-0.128c-0.007-0.001-0.016-0.001-0.022-0.002    c-0.161-0.032-0.325-0.037-0.488-0.051c-0.134-0.013-0.267-0.039-0.401-0.039c-0.006,0-0.011-0.001-0.016-0.001    c-0.006,0-0.012,0.001-0.018,0.001c-0.134,0-0.267,0.026-0.4,0.039c-0.162,0.015-0.326,0.019-0.488,0.051    c-0.008,0.001-0.016,0.001-0.023,0.002c-0.145,0.029-0.279,0.085-0.421,0.128c-0.142,0.042-0.285,0.072-0.425,0.129    c-0.008,0.004-0.016,0.007-0.024,0.01c-0.163,0.068-0.312,0.161-0.466,0.247c-0.109,0.061-0.225,0.106-0.328,0.176l-0.023,0.015    c-0.002,0.002-0.004,0.003-0.006,0.003l-26.907,17.85c-2.157,1.431-2.745,4.338-1.315,6.495    C396.686,85.957,398.175,86.693,399.693,86.693z"/></g></g><g id="Layer_1"/></svg>