<?xml version="1.0" ?><!DOCTYPE svg  PUBLIC '-//W3C//DTD SVG 1.1//EN'  'http://www.w3.org/Graphics/SVG/1.1/DTD/svg11.dtd'><svg height="512px" style="enable-background:new 0 0 512 512;" version="1.1" viewBox="0 0 512 512" width="512px" xml:space="preserve" xmlns="http://www.w3.org/2000/svg" xmlns:xlink="http://www.w3.org/1999/xlink"><g id="_x35_02_x2C__Control_x2C__computer_x2C__monitor_x2C__remote_x2C__smart"><g><path d="M208.475,165.339c1.83,1.159,2.381,3.571,1.251,5.371    c-1.13,1.831-3.541,2.411-5.371,1.282c-5.098-3.175-10.653-5.677-16.542-7.295c-5.708-1.587-11.752-2.441-17.978-2.351    c-6.212,0.062-12.208,1.007-17.886,2.747c-5.829,1.771-11.337,4.365-16.358,7.662c-1.802,1.189-4.227,0.67-5.403-1.13    c-1.189-1.802-0.672-4.212,1.128-5.403c5.601-3.662,11.781-6.592,18.374-8.576c6.364-1.953,13.11-3.021,20.083-3.082    c6.973-0.092,13.734,0.824,20.113,2.594C196.524,159.021,202.782,161.797,208.475,165.339 M193.229,186.215    c1.878,1.068,2.518,3.449,1.465,5.311c-1.053,1.893-3.434,2.533-5.312,1.495c-2.883-1.647-5.996-2.929-9.263-3.754    c-3.173-0.824-6.531-1.251-9.995-1.19c-3.418,0.03-6.761,0.52-9.92,1.404c-3.279,0.915-6.362,2.258-9.202,3.968    c-1.83,1.099-4.227,0.488-5.341-1.374c-1.099-1.83-0.488-4.211,1.344-5.341c3.448-2.045,7.172-3.662,11.078-4.761    c3.816-1.068,7.83-1.648,11.979-1.68c4.12-0.061,8.149,0.459,11.979,1.436C186.01,182.735,189.765,184.262,193.229,186.215z     M161.654,204.985c2.183-2.259,5.25-3.663,8.639-3.693c3.387-0.03,6.47,1.282,8.698,3.479s3.662,5.25,3.692,8.638    c0.032,3.388-1.311,6.47-3.478,8.698c-2.199,2.258-5.25,3.662-8.652,3.693c-3.373,0.03-6.456-1.282-8.685-3.48    c-2.243-2.197-3.662-5.249-3.692-8.637C158.131,210.295,159.457,207.213,161.654,204.985z M170.354,208.77    c-1.299,0-2.504,0.549-3.343,1.435c-0.87,0.854-1.388,2.075-1.374,3.419c0.016,1.281,0.565,2.502,1.449,3.326    c0.87,0.885,2.076,1.404,3.404,1.373c1.297,0,2.486-0.549,3.341-1.434l0.047-0.03c0.839-0.886,1.358-2.076,1.327-3.389    c0-1.282-0.565-2.503-1.434-3.327C172.886,209.258,171.681,208.738,170.354,208.77z M379.17,180.782h-66.414    c-2.075,0-3.755-1.679-3.755-3.724v-52.771c0-2.045,1.68-3.724,3.755-3.724h66.414c2.074,0,3.754,1.679,3.754,3.724v52.771    C382.924,179.104,381.244,180.782,379.17,180.782z M316.51,173.305h58.905v-45.264H316.51V173.305z M449.952,61    c-3.418-3.418-8.117-5.523-13.292-5.523H103.066H75.338c-5.157,0-9.858,2.105-13.261,5.523c-3.404,3.389-5.524,8.09-5.524,13.277    v56.189v203.973c0,5.156,2.12,9.857,5.524,13.275c3.403,3.389,8.104,5.524,13.261,5.524h263.107l-2.137-13.368l-0.017-0.061    v-0.031v-0.03l-0.014-0.061v-0.03l-0.017-0.063l0,0v-0.061v-0.03v-0.061v-0.03v-0.031v-0.184v-0.03v-0.061l0,0v-0.091l0.017-0.062    l0,0l0.014-0.122v-0.031v-0.061l0,0l0.017-0.061l0.016-0.031v-0.061v-0.031l0.014-0.03l0.016-0.03v-0.031l0.016-0.061v-0.03    l0.016-0.062l0,0l0.03-0.061v-0.031l0.016-0.03l0.015-0.061v-0.03l0.031-0.062l0,0l0.029-0.061l0.03-0.093l0,0l0.031-0.061v-0.03    l0.03-0.03l0.016-0.061h0.016l0.029-0.063v-0.03l0.03-0.061h0.017l0.031-0.092h0.014l0.031-0.061l0.015-0.03l0.031-0.063    l0.015-0.029l0.031-0.031l0.029-0.03l0.016-0.03l0.03-0.061l0.032-0.031l0.014-0.03l0.031-0.03l0.03-0.03l0.031-0.062l0.03-0.031    l0.029-0.03l0.031-0.03l0.03-0.03l0.032-0.062h0.014l0.045-0.061h0.032l0.03-0.061h0.029l0.031-0.061h0.03l0.046-0.063h0.016    l0.061-0.061l0,0l0.063-0.061h0.014l0.139-0.092v-0.031l0.06-0.03l0.032-0.03l0.061-0.031l0,0l0.137-0.091h0.016l0.061-0.03    l0.031-0.031l0.062-0.029h0.014l0.383-0.184l0.03-0.031h0.061l0.306-0.091l0.03-0.03l0.152-0.031h0.029h0.063h0.031l0.06-0.031    h0.016h0.077h0.014l0.046-0.029h0.048h0.029h0.062h0.015h0.076h0.076l0,0h0.061h0.032h0.06h0.031h0.03h0.062h0.016h0.076l0,0    h0.061h0.03h0.046h0.045l0.031,0.029h0.063l0,0h0.091l0,0l0.062,0.031h0.029h0.03l0.062,0.031h0.016h0.075l0.062,0.03h0.031h0.046    l0.046,0.03h0.014l0.077,0.03l0,0h0.062l0.029,0.03h0.03l0.048,0.031h0.029l0.062,0.03l0,0l0.075,0.03h0.016l0.047,0.03h0.029    l0.031,0.03l0.062,0.031l34.518,17.274h60.478c5.175,0,9.874-2.136,13.263-5.524c3.418-3.418,5.523-8.119,5.523-13.275V74.277    C455.446,69.09,453.341,64.419,449.952,61z M374.018,360.474c-0.246-0.062-0.443-0.184-0.643-0.306l-28.537-14.283l1.68,10.498    l0.016,0.092l6.713,41.844l9.691-14.802c0.244-0.366,0.55-0.702,0.931-0.978c1.663-1.221,4.013-0.854,5.234,0.795l13.032,17.793    l4.182-3.082l-12.971-17.703c-0.306-0.366-0.52-0.793-0.641-1.281c-0.549-1.983,0.595-4.06,2.594-4.609l17.031-4.791    L374.018,360.474z M432.342,283.285V78.398H88.844H78.817v16.176v188.711H432.342z M439.835,74.645v212.395    c0,2.045-1.678,3.755-3.754,3.755H75.064c-2.076,0-3.755-1.71-3.755-3.755V106.691V74.645c0-2.076,1.679-3.755,3.755-3.755h18.434    h342.583C438.157,70.89,439.835,72.568,439.835,74.645z M212.042,363.006l-16.741,63.576h121.398l-16.788-63.759    C271.802,363.617,242.029,363.465,212.042,363.006z M375.786,434.09c-79.857,0-159.715,0-239.574,0v17.458h239.574V434.09z     M295.48,234.926c-2.075,0-3.753-1.678-3.753-3.754c0-2.075,1.678-3.754,3.753-3.754h107.114c2.06,0,3.753,1.679,3.753,3.754    c0,2.076-1.693,3.754-3.753,3.754H295.48z M295.48,214.873c-2.075,0-3.753-1.678-3.753-3.753s1.678-3.755,3.753-3.755h107.114    c2.06,0,3.753,1.68,3.753,3.755s-1.693,3.753-3.753,3.753H295.48z M255.991,319.483c5.402,0,9.767,4.364,9.767,9.767    s-4.364,9.768-9.767,9.768c-5.387,0-9.765-4.365-9.765-9.768S250.604,319.483,255.991,319.483z M50.647,468.945    c-2.076,0-3.753-1.709-3.753-3.755c0-2.075,1.677-3.754,3.753-3.754h277.558c2.075,0,3.753,1.679,3.753,3.754    c0,2.046-1.678,3.755-3.753,3.755H50.647z M213.172,485.823c-2.062,0-3.739-1.68-3.739-3.755s1.677-3.754,3.739-3.754h192.084    c2.06,0,3.753,1.679,3.753,3.754s-1.693,3.755-3.753,3.755H213.172z M424.91,485.823c-2.06,0-3.753-1.68-3.753-3.755    s1.693-3.754,3.753-3.754h24.006c2.075,0,3.753,1.679,3.753,3.754s-1.678,3.755-3.753,3.755H424.91z M39.72,485.304    c-2.076,0-3.753-1.679-3.753-3.754s1.677-3.754,3.753-3.754h91.014c2.06,0,3.753,1.679,3.753,3.754s-1.693,3.754-3.753,3.754    H39.72z M33.494,166.512c0,2.076-1.679,3.755-3.755,3.755c-2.06,0-3.737-1.679-3.737-3.755V55.019    c0-7.935,3.25-15.169,8.468-20.357c5.221-5.249,12.424-8.484,20.373-8.484h64.08c2.06,0,3.753,1.679,3.753,3.753    c0,2.076-1.693,3.755-3.753,3.755h-64.08c-5.875,0-11.216,2.411-15.077,6.257c-3.86,3.876-6.271,9.217-6.271,15.077V166.512z     M457.156,33.685c-2.061,0-3.754-1.679-3.754-3.755c0-2.074,1.693-3.753,3.754-3.753c7.935,0,15.138,3.235,20.356,8.484    c5.25,5.25,8.486,12.452,8.486,20.357v47.125c0,2.075-1.68,3.755-3.756,3.755c-2.06,0-3.737-1.68-3.737-3.755V55.019    c0-5.86-2.396-11.201-6.258-15.077C468.372,36.096,463.047,33.685,457.156,33.685z M222.758,145.683    c1.8,1.16,2.32,3.571,1.144,5.372c-1.174,1.801-3.585,2.319-5.387,1.159c-7.142-4.669-15.031-8.302-23.408-10.712    c-8.089-2.35-16.665-3.541-25.547-3.449c-8.835,0.092-17.381,1.496-25.439,4.028c-8.317,2.626-16.1,6.44-23.15,11.232    c-1.771,1.189-4.211,0.732-5.417-1.038s-0.748-4.213,1.021-5.402c7.677-5.25,16.177-9.4,25.21-12.238    c8.746-2.748,18.039-4.273,27.714-4.365c9.628-0.121,18.969,1.221,27.774,3.754C206.398,136.648,214.976,140.616,222.758,145.683z    " style="fill-rule:evenodd;clip-rule:evenodd;"/></g></g><g id="Layer_1"/></svg>